polygon
1
  -83.08021701181234  40.07383609449864
  -83.08030000000001  40.0745
  -83.07950000000001  40.0745
  -83.0794     40.0747
  -83.0784     40.074600000000004
  -83.0785     40.0736
  -83.0802     40.0737
  -83.08021392593318  40.073811407465385
  -83.0802187  40.0738116
  -83.08021701181234  40.07383609449864
END
2
  -83.0238501  39.9951718
  -83.02375440721555  39.995580912377434
  -83.0236     39.9966
  -83.02380000000001  39.997800000000005
  -83.0256     39.998200000000004
  -83.02770000000001  39.9991
  -83.02850000000001  39.9996
  -83.0291     40.0003
  -83.03450000000001  40.0004
  -83.0346     39.9998
  -83.0424     40.0002
  -83.0425     39.9981
  -83.04570000000001  39.998200000000004
  -83.0467     39.9986
  -83.04780000000001  39.9987
  -83.0481     39.9989
  -83.0485     39.9996
  -83.0485     40.0001
  -83.0481     40.0062
  -83.0443     40.0061
  -83.0442     40.0067
  -83.0442     40.007000000000005
  -83.0449     40.007000000000005
  -83.0449     40.007200000000005
  -83.0467     40.0073
  -83.0467     40.008900000000004
  -83.0479     40.009
  -83.0475     40.0156
  -83.0446     40.0155
  -83.0446     40.0168
  -83.0433     40.017
  -83.04390000000001  40.0189
  -83.0438     40.0191
  -83.0386     40.0189
  -83.03790000000001  40.0182
  -83.03750000000001  40.017500000000005
  -83.0372     40.016200000000005
  -83.0346     40.0163
  -83.03410000000001  40.0146
  -83.0325     40.0148
  -83.033      40.016200000000005
  -83.0331     40.019200000000005
  -83.034      40.0199
  -83.0346     40.0206
  -83.0347     40.021
  -83.0267     40.0206
  -83.02680000000001  40.0183
  -83.0269     40.0182
  -83.0292     40.0183
  -83.0293     40.016600000000004
  -83.0287     40.0156
  -83.02850000000001  40.0146
  -83.027      40.0146
  -83.027      40.0148
  -83.0267     40.015
  -83.0249     40.014900000000004
  -83.0246     40.014700000000005
  -83.0245     40.017
  -83.02300000000001  40.016200000000005
  -83.02250000000001  40.014700000000005
  -83.0222     40.0128
  -83.0222     40.0114
  -83.02340000000001  40.0066
  -83.01870000000001  40.0064
  -83.0186     40.0069
  -83.0192     40.0069
  -83.0192     40.007600000000004
  -83.0173     40.007600000000004
  -83.0172     40.0075
  -83.0173     40.006800000000005
  -83.018      40.006800000000005
  -83.018      40.0064
  -83.0092     40.006
  -83.0089     40.0043
  -83.01       40.0043
  -83.01       40.003800000000005
  -83.00880000000001  40.0037
  -83.0072     39.9959
  -83.0072     39.9953
  -83.0077     39.995200000000004
  -83.00760000000001  39.9946
  -83.0078     39.9946
  -83.0078     39.994
  -83.0083     39.9941
  -83.0082     39.9946
  -83.009      39.9946
  -83.0091     39.9941
  -83.0121     39.9942
  -83.0122     39.993700000000004
  -83.0133     39.993700000000004
  -83.0134     39.993100000000005
  -83.01480000000001  39.9932
  -83.0146     39.992200000000004
  -83.0147     39.9921
  -83.01910000000001  39.992200000000004
  -83.0192     39.9911
  -83.01950000000001  39.9911
  -83.01950000000001  39.9906
  -83.0197     39.990500000000004
  -83.0241     39.990700000000004
  -83.02420000000001  39.9908
  -83.0241     39.993300000000005
  -83.02391748968043  39.994504568109214
  -83.0238501  39.9951718
END
END
